<?xml version="1.0" encoding="UTF-8" standalone="no"?>
<!-- Created with Inkscape (http://www.inkscape.org/) -->
<svg width="120"
     height="120"
     viewBox="0 0 31.75 31.75"
     version="1.1"
     id="svg5"
     inkscape:version="1.1 (c4e8f9e, 2021-05-24)"
     sodipodi:docname="face.svg"
     xmlns:inkscape="http://www.inkscape.org/namespaces/inkscape"
     xmlns:sodipodi="http://sodipodi.sourceforge.net/DTD/sodipodi-0.dtd"
     xmlns="http://www.w3.org/2000/svg">
    <sodipodi:namedview
            id="namedview7"
            pagecolor="#ffffff"
            bordercolor="#666666"
            borderopacity="1.0"
            inkscape:pageshadow="2"
            inkscape:pageopacity="0.0"
            inkscape:pagecheckerboard="0"
            inkscape:document-units="px"
            showgrid="false"
            inkscape:zoom="4.9753127"
            inkscape:cx="54.770427"
            inkscape:cy="70.447834"
            inkscape:window-width="2560"
            inkscape:window-height="1387"
            inkscape:window-x="0"
            inkscape:window-y="25"
            inkscape:window-maximized="1"
            inkscape:current-layer="layer1"/>
    <defs
            id="defs2"/>
    <g
            inkscape:label="Layer 1"
            inkscape:groupmode="layer"
            id="layer1">
        <ellipse style="fill:#ffffff;stroke:#000000;stroke-width:0.911068;stroke-linecap:round;stroke-linejoin:round" id="path914" ry="12.250243" rx="10.880135" cy="18.12199" cx="15.875"/>
        <path style="fill:none;stroke:#000000;stroke-width:0.79375;stroke-linecap:round;stroke-linejoin:miter;stroke-miterlimit:4;stroke-dasharray:none;stroke-opacity:1"
              d="M 7.1260176,11.167639 C 16.432384,4.3606974 24.994241,11.593073 24.994241,11.593073"
              id="path2599"
              sodipodi:nodetypes="cc"/>
        <path style="fill:none;stroke:#000000;stroke-width:0.79375;stroke-linecap:round;stroke-linejoin:miter;stroke-miterlimit:4;stroke-dasharray:none;stroke-opacity:1"
              d="m 5.681902,14.586101 c 9.306366,-6.8069423 20.633543,0.425434 20.633543,0.425434"
              id="path2599-3"
              sodipodi:nodetypes="cc"/>
        <path style="fill:#000000;stroke:#000000;stroke-width:0.602977;stroke-linecap:round;stroke-linejoin:round;stroke-miterlimit:4;stroke-dasharray:none"
              d="M 93.762952,51.831795 C 88.201396,49.115751 81.103842,46.516257 75.171155,45.02251 69.152709,43.50717 63.822079,42.75136 57.885809,42.571685 46.107846,42.215198 35.290535,44.852184 25.727036,50.411179 c -1.050179,0.61044 -1.934794,1.084515 -1.965809,1.053499 -0.111297,-0.111297 1.988454,-4.862546 2.73816,-6.195821 0.729128,-1.296681 0.899551,-1.450664 3.586016,-3.240109 7.575743,-5.046173 14.687753,-7.794172 22.976589,-8.87789 3.16077,-0.413253 10.267501,-0.303384 13.46649,0.20819 3.127655,0.500166 7.843375,1.755414 10.989438,2.925209 4.87163,1.811408 10.840135,4.994505 14.500002,7.733077 1.234644,0.923848 1.427582,1.175301 2.39043,3.115382 0.991564,1.997941 2.585361,5.996327 2.437881,6.115952 -0.03762,0.03051 -1.425094,-0.60708 -3.083281,-1.416873 z"
              id="path3247"
              transform="scale(0.26458333)"/>
        <path style="fill:none;stroke:#000000;stroke-width:0.264583px;stroke-linecap:butt;stroke-linejoin:miter;stroke-opacity:1"
              d="M 5.849716,12.178045 C 5.796511,10.918939 5.796537,9.6626972 5.796537,8.4023194 5.796537,7.9123867 5.771243,6.3022757 5.849716,5.6901783 5.873708,5.5030478 6.0137587,4.2099936 6.4346878,4.041622 c 0.036802,-0.014721 0.0835,0.020796 0.1063582,0.053179 0.3814445,0.5403797 0.6381509,0.8685749 0.6381509,1.4890186 0,0.035453 -0.00812,-0.071848 0,-0.1063583 0.1015252,-0.4314814 0.7040153,-2.3275848 1.2763019,-2.2867072 0.5549807,0.039642 0.7208924,0.3924723 1.0104053,0.8508677 0.111964,0.1772764 0.1063586,0.232043 0.1063586,0.3722547 0,0.070906 -0.050138,0.1625791 0,0.2127168 0.012533,0.012533 0.042753,0.014335 0.053179,0 C 9.7613826,4.4396752 9.8412124,4.2117134 9.9976965,4.041622 10.383423,3.6223538 11.679615,2.4774919 12.337583,2.4994241 c 0.302741,0.010091 0.64541,0.096497 0.850868,0.3190755 0.258993,0.2805763 0.309059,0.6999123 0.425434,1.0635848 0.02701,0.084415 -0.08863,0.2658961 0,0.2658961 0.09546,0 0.06035,-0.1822529 0.106358,-0.2658961 0.149436,-0.271702 0.263869,-0.5739969 0.478613,-0.7976886 0.221311,-0.230532 0.49452,-0.4307364 0.797689,-0.5317924 0.80072,-0.2669068 0.946588,0.1139537 1.435839,0.6381509 0.08385,0.089838 0.209336,0.2841861 0,0.3190753 -0.7306,0.1217668 0.572063,-0.985043 0.69133,-1.0635847 0.360516,-0.237413 1.395839,-0.6419825 1.967632,-0.4786131 0.406233,0.1160665 0.509435,0.4858691 0.69133,0.7976884 0.0322,0.055207 0.0888,0.098083 0.106359,0.1595379 0.03827,0.1339612 -0.03656,0.4208643 0,0.4254339 0.638375,0.079797 1.570147,-0.2750529 2.020811,-0.3722548 0.370429,-0.079896 0.742223,-0.1550953 1.116763,-0.212717 0.0876,-0.013478 0.183604,-0.032917 0.265897,0 0.095,0.037999 -0.05614,0.9882526 -0.212717,1.2231227 -0.04389,0.065839 -0.372255,0.112427 -0.372255,0.1063583 0,-0.025069 0.03232,-0.039274 0.05318,-0.053179 0.192307,-0.1282046 0.378248,-0.2688928 0.584972,-0.3722547 0.751419,-0.3757091 1.408123,-0.6329087 2.233528,-0.3722547 0.09775,0.030867 0.663993,0.3250559 0.638151,0.5317924 -0.0089,0.070929 -0.167001,0.5849717 -0.319076,0.5849717 -0.01773,0 -0.01334,-0.041507 0,-0.053179 0.232368,-0.2033219 0.583463,-0.4289861 0.850867,-0.5849715 0.06848,-0.039944 0.139113,-0.076916 0.212717,-0.1063585 0.01646,-0.00658 0.05318,0.017727 0.05318,0 0,-0.075207 -0.136736,0.087871 -0.159538,0.1595377 -0.343263,1.0788271 -0.392787,2.1920477 -0.584972,3.2971128 -0.144124,0.8287134 -0.345706,1.5966786 -0.372255,2.4462449 -0.0032,0.1027178 -0.0491,0.8753227 0,1.1699437 0.03586,0.215147 0.134927,0.416649 0.159538,0.638151 0.0322,0.289831 0,0.611629 0,0.904047"
              id="path3331"/>
        <path style="fill:#000000;stroke:#000000;stroke-width:0.602977;stroke-linecap:round;stroke-linejoin:round;stroke-miterlimit:4;stroke-dasharray:none"
              d="M 96.718008,43.519164 C 92.693959,36.145911 87.015066,30.13279 80.196588,26.025388 67.328872,18.273966 51.240213,18.551257 38.645968,26.74152 c -6.129906,3.986388 -10.86762,9.041343 -14.85089,15.845321 l -1.045223,1.785387 -0.135729,-1.282906 c -0.226721,-2.142963 0.01414,-21.83853 0.282384,-23.090579 0.340314,-1.588457 1.017335,-3.591512 1.265817,-3.745083 0.450327,-0.278317 1.948823,2.31957 2.276148,3.946076 0.197555,0.981665 0.282715,1.11258 0.760472,1.169056 0.422771,0.04998 0.538003,-0.02119 0.538003,-0.332285 0,-0.600651 1.350337,-4.352612 2.104082,-5.846268 0.366852,-0.72697 0.898433,-1.570492 1.181291,-1.874493 1.01133,-1.086922 2.309558,-0.585327 3.647684,1.409352 0.717654,1.069771 0.905647,1.526296 0.905647,2.199294 0,0.605938 0.100785,0.901127 0.351736,1.030196 0.55285,0.28434 0.816918,0.08344 1.673894,-1.273487 1.163465,-1.842215 5.404208,-5.357786 7.538854,-6.249697 1.674172,-0.6995143 3.82305,-0.137786 4.590522,1.199987 0.601164,1.047882 1.182295,3.068629 1.042577,3.625312 -0.156726,0.62445 0.144025,0.964536 0.786208,0.889031 0.445554,-0.05239 0.610096,-0.214332 0.782162,-0.769816 0.90768,-2.930311 3.275885,-5.144105 5.758042,-5.3826092 0.915466,-0.087964 1.003445,-0.049695 1.974996,0.8590772 0.862764,0.807013 0.985286,1.010118 0.808562,1.34033 -0.611242,1.142118 0.361314,2.117795 1.541686,1.546632 0.460013,-0.222594 0.58292,-0.412317 0.570883,-0.881238 -0.0084,-0.328666 -0.05366,-0.722945 -0.100497,-0.876176 -0.04882,-0.159721 0.499913,-0.775632 1.285972,-1.443408 1.857535,-1.5780187 4.142053,-2.449798 6.495553,-2.4787239 1.935945,-0.023794 2.124868,0.096342 3.18527,2.0255069 0.469817,0.854728 0.706104,1.548953 0.706104,2.074578 0,0.593072 0.103662,0.845457 0.415883,1.012553 0.606823,0.324761 2.651365,0.05986 5.814881,-0.753396 1.986804,-0.510757 6.383064,-1.464959 6.749453,-1.464959 0.05107,0 -0.295856,2.227457 -0.396137,2.543415 -0.06533,0.205836 -0.479472,0.597165 -0.920315,0.869621 -0.95162,0.588133 -1.161386,1.004844 -0.682204,1.355231 0.56338,0.411954 1.448014,0.30677 1.991584,-0.236802 0.271339,-0.271339 0.493345,-0.575316 0.493345,-0.675503 0,-0.228226 2.807842,-1.520609 4.019848,-1.850241 2.152796,-0.5855 4.913589,-0.07846 6.027217,1.106942 0.377195,0.401505 0.404733,0.533595 0.19565,0.93847 -0.13383,0.259158 -0.421105,0.666632 -0.638388,0.905498 -0.510146,0.560823 -0.395975,1.153538 0.239539,1.243556 0.333842,0.04729 0.625933,-0.08786 0.902414,-0.417541 0.224838,-0.268103 0.70275,-0.690123 1.062024,-0.937823 0.720808,-0.496956 0.787628,-0.380264 0.449138,0.784291 -0.11225,0.386181 -0.513432,2.827641 -0.891513,5.425468 -0.37808,2.597827 -0.973663,6.21569 -1.323519,8.039696 -0.821825,4.284685 -1.05848,9.705141 -0.511883,11.724437 0.197574,0.729898 0.314029,1.764938 0.278557,2.475814 l -0.06095,1.221564 z"
              id="path3450"
              transform="scale(0.26458333)"/>
        <path style="fill:none;stroke:#000000;stroke-width:0.264583px;stroke-linecap:butt;stroke-linejoin:miter;stroke-opacity:1"
              d="m 7.8173478,16.645101 c 0.7976886,-0.265896 1.5953772,-0.531792 2.3930662,-0.797689 0.05318,-0.05318 0.08934,-0.186535 0.159537,-0.159537 0.211878,0.08149 0.330908,0.319705 0.531793,0.425434 0.708477,0.372882 1.342662,-0.02636 1.648556,-0.638151"
              id="path3522"/>
        <path style="fill:none;stroke:#000000;stroke-width:0.264583px;stroke-linecap:butt;stroke-linejoin:miter;stroke-opacity:1"
              d="m 16.75146,15.209262 c 0.673603,-0.01773 1.363409,-0.201095 2.020811,-0.05318 0.176365,0.03968 0.03515,0.365635 0.106358,0.531793 0.09104,0.212436 0.203641,0.426896 0.372255,0.584971 0.526027,0.493151 1.968313,0.352779 2.552603,0.372255 0.176468,0.0059 0.313159,0.05318 0.478613,0.05318"
              id="path3524"/>
        <path style="fill:#000000;stroke:#000000;stroke-width:0.79375;stroke-linecap:round;stroke-linejoin:round;stroke-miterlimit:4;stroke-dasharray:none"
              id="path3550"
              sodipodi:type="arc"
              sodipodi:cx="10.210413"
              sodipodi:cy="18.346836"
              sodipodi:rx="0.26589617"
              sodipodi:ry="0.42543387"
              sodipodi:start="0"
              sodipodi:end="0.0065752487"
              sodipodi:arc-type="slice"
              d="m 10.476309,18.346836 a 0.26589617,0.42543387 0 0 1 -6e-6,0.0028 l -0.26589,-0.0028 z"/>
        <path style="fill:#000000;stroke:#000000;stroke-width:0.79375;stroke-linecap:round;stroke-linejoin:round;stroke-miterlimit:4;stroke-dasharray:none"
              id="path3550-3"
              sodipodi:type="arc"
              sodipodi:cx="18.956469"
              sodipodi:cy="18.292259"
              sodipodi:rx="0.26589617"
              sodipodi:ry="0.42543387"
              sodipodi:start="0"
              sodipodi:end="0.0065752487"
              sodipodi:arc-type="slice"
              d="m 19.222365,18.292259 a 0.26589617,0.42543387 0 0 1 -6e-6,0.0028 l -0.26589,-0.0028 z"/>
        <path style="fill:none;stroke:#000000;stroke-width:0.264583px;stroke-linecap:butt;stroke-linejoin:miter;stroke-opacity:1"
              d="m 14.571111,18.931808 c 0.02341,0.823553 -0.08498,1.665916 -0.319076,2.446245 -0.0089,0.02966 -0.07002,0.412437 -0.159537,0.531793 -0.106876,0.1425 -0.478949,0.318739 -0.265897,0.531792 0.283465,0.283464 1.046681,-0.464103 0.74451,-0.584972 -0.06583,-0.02633 -0.141811,0 -0.212717,0 -0.569791,0 -0.144097,0.394553 -0.05318,0.212717 0.06217,-0.124336 -0.328769,-0.06287 -0.159538,0.106359 0.132779,0.132779 0.587297,-0.37303 0.106358,-0.212717 -0.286426,0.09548 -0.394132,0.247217 -0.319075,0.584971 0.04657,0.20957 0.851719,-0.25058 0.372255,-0.319075 -0.432379,-0.06177 -0.117167,0.122284 0.106358,0.159538 0.123639,0.02061 0.478547,0.01325 0.372255,-0.05318 -0.379152,-0.23697 -0.794792,-0.316179 -0.638151,-0.159537 0.06226,0.06226 0.14239,-0.123507 0.106358,-0.159538 -0.0014,-0.0014 -0.24879,0.09757 0.106359,0.05318 0.231354,-0.02892 0.460519,-0.07338 0.69133,-0.106358 0.371451,-0.05306 0.653326,-0.09118 0.584972,-0.159538 -0.223336,-0.223336 -0.166888,0.181155 -0.106359,0.265896 0.08085,0.113194 0.425434,0.327049 0.425434,0.05318 0,-0.01773 0.01585,-0.04525 0,-0.05318 -0.03606,-0.01803 -0.264005,-0.110141 -0.319075,0 -0.06808,0.136153 0.134649,0.716218 0.159537,0.69133 0.07309,-0.07309 0.106359,-0.177264 0.159538,-0.265896 0.05318,-0.08863 0.14492,-0.163573 0.159538,-0.265896 0.01482,-0.103707 -0.409327,-0.261039 -0.425434,-0.212717 -0.06192,0.185747 -0.02634,0.406052 0.05318,0.584972 0.10255,0.230738 0.463416,-0.235511 0.425434,-0.265897 -0.08754,-0.07004 -0.212717,-0.0709 -0.319076,-0.106358 -0.425723,-0.141908 0.05954,0.310592 0.212718,0.106358 0.169025,-0.225367 -0.454139,-0.568504 -0.584972,-0.372254 -0.11158,0.167369 0.387881,0.485921 0.478613,0.425434 0.0022,-0.0015 0.244358,-0.797689 0,-0.797689 -0.09039,0 -0.195315,-0.0033 -0.265896,0.05318 -0.0974,0.07792 0.02483,0.638151 0.319075,0.638151"
              id="path3689"/>
        <path style="fill:none;stroke:#000000;stroke-width:0.264583px;stroke-linecap:butt;stroke-linejoin:miter;stroke-opacity:1"
              d="m 14.145677,27.22777 c 2.583017,-1.315878 2.275988,-0.580114 3.031216,-1.754915 0.330217,-0.51367 0.136646,-0.296184 0.425434,-0.584972"
              id="path3691"/>
        <path style="fill:none;stroke:#000000;stroke-width:0.264583px;stroke-linecap:butt;stroke-linejoin:miter;stroke-opacity:1"
              d="m 14.145677,27.22777 c 1.013949,0.09692 2.267528,0.09703 3.084396,-0.638151 0.216101,-0.194492 0.347688,-0.466314 0.531792,-0.691331 0.04762,-0.05821 0.125904,-0.09227 0.159538,-0.159538 0.08621,-0.172424 0.167555,-0.614097 0.106358,-0.797688 -0.0041,-0.01236 -0.184299,-0.03897 -0.212717,-0.05318 -0.118598,-0.0593 -0.05689,-0.07791 -0.212717,0"
              id="path3697"/>
        <path style="fill:none;stroke:#000000;stroke-width:0.264583px;stroke-linecap:butt;stroke-linejoin:miter;stroke-opacity:1"
              d="m 13.135271,13.720243 c 0.05318,0.07091 0.139608,0.126355 0.159538,0.212717 0.05871,0.254417 -0.118262,0.773881 0,1.010406 0.06032,0.120643 0.586154,-0.27772 0.531792,0.265896 -0.0025,0.02467 -0.03191,0.584971 -0.106358,0.584971"
              id="path3705"/>
        <path style="fill:none;stroke:#000000;stroke-width:0.264583px;stroke-linecap:butt;stroke-linejoin:miter;stroke-opacity:1"
              d="m 15.31562,13.560705 c -0.01773,0.265896 -0.01796,0.53354 -0.05318,0.797689 -0.0024,0.01792 -0.341057,-0.0156 -0.372255,0 -0.02646,0.01323 -0.206807,1.028133 -0.159537,1.169943 0.04054,0.121636 0.106358,-0.01678 0.106358,0.106359"
              id="path3707"/>
    </g>
</svg>
